<?xml version="1.0" encoding="utf-8"?>
<!-- Svg Vector Icons : http://www.onlinewebfonts.com/icon -->
<!DOCTYPE svg PUBLIC "-//W3C//DTD SVG 1.1//EN" "http://www.w3.org/Graphics/SVG/1.1/DTD/svg11.dtd">
<svg version="1.1" xmlns="http://www.w3.org/2000/svg" xmlns:xlink="http://www.w3.org/1999/xlink" x="0px" y="0px" viewBox="0 0 1000 1000" enable-background="new 0 0 1000 1000" xml:space="preserve">
<metadata> Svg Vector Icons : http://www.onlinewebfonts.com/icon </metadata>
<g><path d="M500,990C229.4,990,10,770.6,10,500C10,229.4,229.4,10,500,10c270.6,0,490,219.4,490,490C990,770.6,770.6,990,500,990z M855.1,739.8c41-60.5,67-131.9,72.5-209.1H682.4c-1.6,56.9-6.3,112.5-15.4,165.6C733.4,705.7,796.5,720.3,855.1,739.8z M378.9,530.6c1.6,53.9,6.5,107,15.8,157.9c34.5-3,69.5-4.8,105.3-4.8c35.8,0,70.9,1.8,105.3,4.8c9.2-50.9,14.1-104,15.8-157.9H378.9z M621.1,469.4c-1.6-53.9-6.5-107-15.8-157.9c-34.5,3-69.5,4.8-105.3,4.8c-35.8,0-70.9-1.8-105.3-4.8c-9.2,50.9-14.1,104-15.8,157.9H621.1z M813,792.6c-50-15.8-102.8-27.8-157.9-36c-12.9,56.1-29.5,109.4-50,158.6C686,894.8,757.7,851.5,813,792.6z M470.3,927.3c9.9,0.7,19.7,1.5,29.7,1.5c10,0,19.9-0.8,29.7-1.5c26.1-54.3,47.2-114.7,62.8-178.8c-30.4-2.7-61.3-4.2-92.5-4.2s-62.1,1.6-92.5,4.2C423.1,812.6,444.2,873,470.3,927.3z M394.9,915.2c-20.4-49.2-37.1-102.5-50-158.6c-55,8.1-107.8,20.2-157.8,36C242.3,851.5,314,894.8,394.9,915.2z M332.9,696.3c-9-53.1-13.8-108.7-15.4-165.6H72.4c5.5,77.2,31.4,148.7,72.5,209.1C203.5,720.3,266.6,705.7,332.9,696.3z M144.9,260.2c-41,60.5-67,131.9-72.5,209.1h245.2c1.5-56.9,6.3-112.5,15.4-165.6C266.6,294.4,203.5,279.7,144.9,260.2z M187.1,207.4c50,15.8,102.8,27.9,157.8,36c12.9-56.1,29.5-109.4,50-158.6C314,105.2,242.3,148.5,187.1,207.4z M529.7,72.7c-9.9-0.7-19.7-1.5-29.7-1.5c-10,0-19.9,0.8-29.7,1.5c-26.1,54.3-47.2,114.7-62.8,178.8c30.4,2.7,61.3,4.2,92.5,4.2s62.1-1.6,92.5-4.2C576.9,187.4,555.8,127,529.7,72.7z M605.2,84.8c20.4,49.3,37.1,102.5,50,158.6c55-8.1,107.8-20.2,157.9-36C757.7,148.5,686,105.2,605.2,84.8z M667.1,303.7c9,53.1,13.8,108.7,15.4,165.6h245.1c-5.5-77.2-31.4-148.7-72.5-209.1C796.5,279.7,733.4,294.4,667.1,303.7z"/></g>
</svg>